<svg version="1.1" id="Layer_1" xmlns="http://www.w3.org/2000/svg" xmlns:xlink="http://www.w3.org/1999/xlink" x="0px"
	y="0px" width="100%" viewBox="0 0 350 350" enable-background="new 0 0 350 350" xml:space="preserve">
	<path fill="#FCFCFC" opacity="1.000000" stroke="none" d="
M211.731842,47.222507 
	C253.396271,67.301186 271.926666,115.427864 256.175171,156.512100 
	C244.359604,187.330292 222.379700,207.854630 189.123764,213.138153 
	C171.759705,215.896851 153.965714,215.771362 137.209274,207.827820 
	C122.462387,200.836929 110.064171,191.081696 100.776825,177.754318 
	C80.221100,148.256821 79.003265,117.095558 94.668762,85.307076 
	C102.417030,69.584251 114.984070,57.907909 130.274216,49.381054 
	C156.871063,34.548786 184.028076,35.878307 211.731842,47.222507 
M127.006783,143.396317 
	C132.997711,157.708496 141.733063,169.769928 155.634552,177.343903 
	C166.960449,183.514633 178.906525,183.644775 190.072968,177.784805 
	C204.416580,170.257462 213.945480,157.889297 219.967041,142.969147 
	C223.044022,135.345032 225.115646,127.228821 222.839172,119.094559 
	C220.990189,112.487755 218.293060,106.009598 215.133102,99.908958 
	C211.968979,93.800308 211.886353,91.280914 217.488449,87.303963 
	C219.282547,86.030327 221.665924,85.607727 223.737152,84.698769 
	C227.120682,83.213882 231.018219,81.735176 230.016479,77.057053 
	C229.106094,72.805664 225.736710,70.982208 221.451324,71.032768 
	C216.836411,71.087219 213.924866,73.962311 212.707016,79.568825 
	C210.796616,88.363586 205.549088,91.410965 197.253952,88.547409 
	C195.526733,87.951157 193.732330,87.507927 192.073456,86.761726 
	C177.147690,80.047668 162.638184,81.468239 148.563766,89.149208 
	C145.033600,91.075768 142.108627,90.741096 139.680283,87.895523 
	C137.688690,85.561752 136.289047,82.732033 134.517609,80.198647 
	C132.637817,77.510284 130.968506,74.542473 128.595383,72.362961 
	C125.205963,69.250053 120.571442,70.576851 117.088806,75.173302 
	C113.865097,79.428009 117.946640,80.999977 120.218048,83.043541 
	C121.269638,83.989632 122.800087,84.539040 124.207352,84.931839 
	C132.264984,87.180954 134.827347,92.417969 131.282394,99.608208 
	C130.695023,100.799606 130.145981,102.018494 129.455612,103.149208 
	C121.697731,115.855385 120.688347,129.012314 127.006783,143.396317 
z" />
	<path fill="#F9F9F9" opacity="1.000000" stroke="none" d="
M257.003662,268.920593 
	C259.190155,274.527557 261.287415,279.758209 263.707245,285.793365 
	C265.935944,280.292633 267.943024,275.360535 269.931976,270.421143 
	C270.986053,267.803345 272.001068,265.169891 273.046967,262.548798 
	C275.899536,255.400146 275.902344,255.401260 284.305603,256.183838 
	C285.101379,269.493774 285.902740,282.897308 286.725403,296.656982 
	C283.627991,296.656982 280.587708,296.656982 277.166840,296.656982 
	C277.166840,289.759186 277.166840,282.971008 277.166840,276.182831 
	C276.876465,276.108002 276.586090,276.033173 276.295715,275.958313 
	C274.009338,281.346710 271.680115,286.717468 269.454407,292.130768 
	C268.321899,294.885132 267.664276,297.352600 263.467499,297.212494 
	C259.674530,297.085876 258.840057,295.129272 257.765808,292.407501 
	C255.660706,287.073883 253.335083,281.827271 250.172943,276.645264 
	C250.172943,283.297272 250.172943,289.949280 250.172943,296.795441 
	C246.791626,296.795441 244.033020,296.795441 240.644287,296.795441 
	C241.426788,283.309570 242.203598,269.921967 242.979263,256.553925 
	C250.714706,254.631210 251.273376,254.916443 254.213181,262.123505 
	C255.090118,264.273346 256.012726,266.404541 257.003662,268.920593 
z" />
	<path fill="#FAFAFA" opacity="1.000000" stroke="none" d="
M156.924042,293.849792 
	C156.923859,281.058228 156.923859,268.754669 156.923859,256.237000 
	C162.210449,254.960480 165.942245,255.893280 168.828415,261.016418 
	C172.469070,267.478851 176.986343,273.447388 181.534912,280.240540 
	C181.534912,271.839264 181.534912,264.205322 181.534912,256.193359 
	C184.486359,256.193359 187.545059,256.193359 190.954224,256.193359 
	C190.954224,269.599487 190.954224,283.144043 190.954224,296.690887 
	C185.552383,298.041809 181.703506,296.712006 178.821136,291.374969 
	C175.492432,285.211395 171.200165,279.568237 166.690796,272.736298 
	C166.690796,281.508820 166.690796,289.032440 166.690796,297.224731 
	C163.474991,295.377960 158.969696,300.234222 156.924042,293.849792 
z" />
	<path fill="#F8F8F8" opacity="1.000000" stroke="none" d="
M147.602051,262.575897 
	C151.224838,269.569885 151.521027,276.617310 149.823303,283.744568 
	C147.610153,293.035675 140.840698,297.464783 129.918518,297.112244 
	C120.567245,296.810394 115.187775,292.426544 113.812935,282.839172 
	C113.145584,278.185394 113.261345,273.156342 114.294533,268.584686 
	C115.764397,262.080811 119.907768,257.326202 126.918907,255.981613 
	C134.823929,254.465591 142.226791,254.755386 147.602051,262.575897 
M124.053047,280.065063 
	C124.397865,281.677765 124.591125,283.341949 125.118210,284.892700 
	C126.312698,288.406982 128.744461,290.210449 132.595810,290.153412 
	C136.533813,290.095032 138.544556,287.603577 138.840073,284.337067 
	C139.310181,279.141052 139.359818,273.834656 138.853210,268.646637 
	C138.482117,264.846222 135.605957,262.392426 131.688721,262.300720 
	C127.845116,262.210785 125.541412,264.710480 124.957024,268.355774 
	C124.385376,271.921600 124.311546,275.567261 124.053047,280.065063 
z" />
	<path fill="#F8F8F8" opacity="1.000000" stroke="none" d="
M228.273254,293.391907 
	C222.654694,297.645447 216.496704,297.811554 210.378830,296.741943 
	C202.218796,295.315277 198.195129,289.289520 197.463074,278.489258 
	C196.353760,262.123077 207.293350,252.041290 222.467087,256.103058 
	C226.077408,257.069489 229.912857,260.030609 232.036942,263.164124 
	C237.672424,271.477722 235.593842,285.847504 228.273254,293.391907 
M223.495651,283.593231 
	C223.345367,278.353088 223.595963,273.059509 222.907578,267.891052 
	C222.427551,264.287018 219.425369,262.277374 215.709702,262.294189 
	C211.993454,262.311005 209.661163,264.876312 209.320511,268.141144 
	C208.778488,273.335846 208.687592,278.666687 209.226456,283.854736 
	C209.606628,287.514862 212.137344,290.028351 216.345581,290.143341 
	C220.419495,290.254669 222.350281,288.005493 223.495651,283.593231 
z" />
	<path fill="#F9F9F9" opacity="1.000000" stroke="none" d="
M29.537212,283.477386 
	C32.822166,274.934814 36.090237,266.789246 38.922405,258.494843 
	C40.017403,255.287964 42.181850,255.746933 44.420475,255.837250 
	C46.563667,255.923691 48.920685,254.971176 50.078327,258.273743 
	C54.556564,271.049408 59.312294,283.727814 64.083443,296.767059 
	C60.676422,296.767059 57.600815,296.767059 54.065659,296.767059 
	C53.051098,293.751678 51.958824,290.505310 50.831226,287.153992 
	C46.488750,287.153992 42.199379,287.153992 37.622345,287.153992 
	C36.586559,290.288666 35.563137,293.385925 34.452728,296.746460 
	C31.439377,296.746460 28.331572,296.746460 24.615435,296.746460 
	C26.228100,292.338318 27.787188,288.076630 29.537212,283.477386 
M46.213890,272.316742 
	C45.704651,270.600281 45.195412,268.883850 44.364281,266.082397 
	C42.707333,271.088867 41.366837,275.139191 40.039043,279.151123 
	C43.156273,279.151123 45.657955,279.151123 48.472847,279.151123 
	C47.714058,276.777618 47.119556,274.917999 46.213890,272.316742 
z" />
	<path fill="#F8F8F8" opacity="1.000000" stroke="none" d="
M320.118347,266.212097 
	C319.602386,267.300140 319.295502,268.083160 318.850006,268.777191 
	C313.415161,277.243225 310.463745,286.326660 312.546875,296.761414 
	C308.809662,296.761414 305.734711,296.761414 301.638367,296.761414 
	C305.679169,281.008636 295.474731,269.432526 289.955780,256.460602 
	C290.467010,256.165100 290.709045,255.938660 290.987640,255.876831 
	C297.681793,254.391327 301.963562,256.752014 303.846344,263.552002 
	C304.540405,266.058716 306.020325,268.347839 307.405457,271.297760 
	C308.778503,268.473297 309.922333,266.176300 311.017944,263.856537 
	C315.050964,255.317001 315.044983,255.314163 325.233673,256.119995 
	C323.512726,259.494232 321.887878,262.679962 320.118347,266.212097 
z" />
	<path fill="#FAFAFA" opacity="1.000000" stroke="none" d="
M84.088326,263.008148 
	C82.828842,260.875000 82.041519,258.746613 81.051964,256.071533 
	C92.085770,256.071533 101.985191,256.071533 112.293488,256.071533 
	C111.960587,258.340424 111.657127,260.408691 111.298119,262.855530 
	C108.191109,262.855530 105.283417,262.855530 101.932976,262.855530 
	C101.932976,274.319611 101.932976,285.380524 101.932976,296.720825 
	C98.426155,296.720825 95.352829,296.720825 91.814880,296.720825 
	C91.814880,285.678925 91.814880,274.621613 91.814880,263.012909 
	C89.099464,263.012909 86.829971,263.012909 84.088326,263.008148 
z" />
	<path fill="#FDFDFD" opacity="1.000000" stroke="none" d="
M67.906998,266.015320 
	C67.906998,262.390778 67.906998,259.263214 67.906998,255.964417 
	C71.393417,255.964417 74.461098,255.964417 77.743790,255.964417 
	C77.743790,269.590332 77.743790,283.011566 77.743790,296.718353 
	C74.636604,296.718353 71.563202,296.718353 67.906998,296.718353 
	C67.906998,286.691803 67.906998,276.602051 67.906998,266.015320 
z" />
</svg>