<svg version="1.1" id="Layer_1" xmlns="http://www.w3.org/2000/svg" xmlns:xlink="http://www.w3.org/1999/xlink" x="0px"
	y="0px" width="100%" viewBox="0 0 700 160" enable-background="new 0 0 700 160" xml:space="preserve">
	<path fill="#FCFCFC" opacity="1.000000" stroke="none" d="
M17.110004,82.884262 
	C17.113073,50.111507 39.140270,22.784748 70.482056,17.854507 
	C98.608429,13.430068 124.041740,24.575731 138.251419,49.579071 
	C151.947342,73.678406 148.677277,103.114777 130.406586,123.859589 
	C117.285500,138.757462 100.865646,144.725861 80.987099,145.547363 
	C50.840492,146.793167 22.769266,120.414841 18.581064,95.228249 
	C17.927570,91.298325 17.599005,87.314362 17.110004,82.884262 
M116.067123,67.610710 
	C114.983452,65.558670 113.962013,63.470737 112.803650,61.461761 
	C110.050308,56.686584 111.500542,52.792782 116.726479,51.092854 
	C118.285255,50.585804 120.038727,50.368149 121.358490,49.496368 
	C124.638306,47.329845 124.288261,43.319912 120.835815,41.473808 
	C117.080811,39.465916 112.422119,41.381973 111.131897,45.464897 
	C108.139328,54.934917 106.378174,56.101540 97.449600,52.542931 
	C86.860313,48.322433 76.517319,47.810787 66.093796,52.697994 
	C59.787605,55.654739 56.782333,54.333755 53.922184,47.904243 
	C52.892448,45.589436 51.202881,43.317554 49.247402,41.720272 
	C45.782696,38.890224 42.665470,41.114227 40.991787,44.027267 
	C40.387238,45.079487 42.433094,47.974537 43.735493,49.670887 
	C44.413475,50.553947 46.110928,50.644234 47.338402,51.117214 
	C52.714600,53.188808 53.992157,56.603645 51.230705,61.674091 
	C47.038101,69.372368 43.589939,77.130394 45.944714,86.322868 
	C49.029758,98.366165 55.251354,108.324608 65.092033,115.858002 
	C73.277313,122.124115 82.720764,123.167076 92.073021,119.675980 
	C106.705132,114.213966 125.787437,89.166252 116.067123,67.610710 
z" />
	<path fill="#FBFBFB" opacity="1.000000" stroke="none" d="
M537.355591,112.867569 
	C538.655396,90.827705 539.962280,69.235764 541.308228,46.998787 
	C545.457642,46.998787 549.585815,46.717106 553.631409,47.171581 
	C554.834534,47.306744 556.230835,49.337357 556.817200,50.790558 
	C562.864685,65.776863 568.764160,80.822899 574.806213,96.108772 
	C581.342224,79.695518 587.817810,63.434090 594.287720,47.186943 
	C598.977783,47.186943 603.436646,47.186943 608.157715,47.186943 
	C609.480408,69.420242 610.792175,91.470932 612.119080,113.774918 
	C606.959351,113.774918 602.193481,113.774918 596.658447,113.774918 
	C596.658447,102.238098 596.658447,90.677635 596.658447,79.117180 
	C596.243652,79.044403 595.828857,78.971634 595.414062,78.898857 
	C593.598206,83.292389 591.796692,87.691940 589.962036,92.077652 
	C588.361450,95.903870 586.707458,99.707741 585.105347,103.533348 
	C580.609558,114.268951 580.615356,114.271378 568.213318,113.873222 
	C563.414917,102.371864 558.497070,90.584030 553.579163,78.796196 
	C553.280945,78.826157 552.982666,78.856117 552.684448,78.886078 
	C552.684448,90.448608 552.684448,102.011131 552.684448,114.298653 
	C547.107483,113.940788 542.235046,113.628136 537.355591,112.867569 
z" />
	<path fill="#FCFCFC" opacity="1.000000" stroke="none" d="
M417.613953,86.322601 
	C417.633911,95.616577 417.633911,104.441628 417.633911,113.636253 
	C412.652466,113.636253 407.432770,113.636253 401.921753,113.636253 
	C401.921753,91.660164 401.921753,69.598534 401.921753,46.998615 
	C405.643280,46.998615 409.464569,46.705479 413.198456,47.148716 
	C414.612183,47.316532 416.158203,48.956539 417.076019,50.310459 
	C425.244019,62.359428 433.284698,74.494705 441.568970,86.913391 
	C441.568970,73.500504 441.568970,60.496002 441.568970,47.243080 
	C446.539734,47.243080 451.644531,47.243080 457.119232,47.243080 
	C457.119232,69.221268 457.119232,91.268684 457.119232,113.998245 
	C453.173309,113.998245 449.073181,114.231300 445.028839,113.858879 
	C443.785461,113.744392 442.399567,112.169861 441.579620,110.932182 
	C433.960449,99.431282 426.450470,87.858002 418.909515,76.305283 
	C418.500946,75.679298 418.098450,75.049370 416.878906,74.666870 
	C417.117279,78.395805 417.355621,82.124748 417.613953,86.322601 
z" />
	<path fill="#FBFBFB" opacity="1.000000" stroke="none" d="
M337.842194,106.101761 
	C328.197174,91.614479 328.530731,76.587860 334.888184,61.608181 
	C339.790985,50.055996 351.934448,44.952370 367.356873,46.689583 
	C379.521362,48.059814 387.153381,55.163033 390.198944,67.625427 
	C392.348816,76.422646 392.118652,85.177376 389.732758,93.794876 
	C385.975861,107.364418 375.125305,114.533127 359.326660,114.464195 
	C351.199158,114.428726 343.855621,112.508102 337.842194,106.101761 
M349.998871,94.234802 
	C352.862091,100.760086 357.331696,103.650635 363.434784,102.924004 
	C368.159302,102.361504 371.627045,98.598602 372.914917,92.172394 
	C374.700134,83.264664 374.837982,74.336533 371.741516,65.672760 
	C369.823730,60.306778 365.695618,57.757324 360.288696,57.904613 
	C355.221008,58.042656 351.726044,60.732475 350.053497,66.451653 
	C347.439453,75.390198 347.358734,84.429893 349.998871,94.234802 
z" />
	<path fill="#FBFBFB" opacity="1.000000" stroke="none" d="
M468.894501,94.917633 
	C466.292725,82.826385 466.408142,71.316277 472.090881,60.501694 
	C478.740265,47.847580 492.782471,44.422745 507.234924,47.179352 
	C519.200439,49.461605 527.037354,59.224213 527.864868,73.219048 
	C528.261719,79.930237 527.936523,86.957832 526.353577,93.456100 
	C522.925842,107.527672 511.796967,114.746902 495.893646,114.447060 
	C481.291504,114.171753 474.101990,109.066780 468.894501,94.917633 
M491.078796,100.585808 
	C499.495392,105.040100 506.143524,103.176376 508.762939,95.108734 
	C511.867096,85.547920 511.674988,75.761337 508.693726,66.190178 
	C506.921692,60.501205 502.649445,57.776318 497.095398,57.896492 
	C491.919495,58.008476 488.650116,60.455559 486.854736,66.382812 
	C484.049591,75.643570 483.969513,85.037140 486.904572,94.290436 
	C487.569550,96.386749 489.292328,98.147530 491.078796,100.585808 
z" />
	<path fill="#FBFBFB" opacity="1.000000" stroke="none" d="
M239.114197,80.799820 
	C243.175629,91.892349 247.126373,102.609680 251.220734,113.716568 
	C245.597458,113.716568 240.381516,113.716568 234.773972,113.716568 
	C233.155533,108.593529 231.476242,103.277870 229.796097,97.959549 
	C222.475189,97.959549 215.502548,97.959549 208.231171,97.959549 
	C206.468536,103.290230 204.711533,108.603912 202.973740,113.859482 
	C197.568512,113.859482 192.440567,113.859482 186.846695,113.859482 
	C195.354050,91.435280 203.754013,69.294144 212.172897,47.103115 
	C216.966736,47.103115 221.619431,47.103115 226.791321,47.103115 
	C230.824814,58.108688 234.914154,69.266663 239.114197,80.799820 
M215.960480,73.462608 
	C214.652939,77.495422 213.345398,81.528236 212.003693,85.666443 
	C216.854553,85.666443 221.262405,85.666443 226.057358,85.666443 
	C223.779526,78.660454 221.599472,71.955193 219.054581,64.127785 
	C217.811996,67.784195 216.978226,70.237625 215.960480,73.462608 
z" />
	<path fill="#FBFBFB" opacity="1.000000" stroke="none" d="
M634.320190,48.213490 
	C638.124207,56.386127 641.725586,64.198029 645.639709,72.688393 
	C649.290771,64.949387 652.770935,57.822605 656.004211,50.585506 
	C657.158264,48.002319 658.484192,46.677555 661.556641,46.914291 
	C665.665222,47.230862 669.816589,46.992599 674.718628,46.992599 
	C673.268555,49.979797 672.084473,52.464275 670.859802,54.928581 
	C669.752319,57.156853 668.610474,59.368240 667.466736,61.578220 
	C659.022644,77.893608 648.743530,93.700150 654.421387,113.779976 
	C647.991272,113.779976 642.892822,113.779976 637.151733,113.779976 
	C637.151733,107.208267 637.464355,100.595062 637.032410,94.030846 
	C636.780457,90.201820 635.941711,86.167091 634.320190,82.716881 
	C628.767639,70.902901 622.752197,59.306458 616.397888,46.595963 
	C622.905212,47.057507 628.511414,47.455128 634.320190,48.213490 
z" />
	<path fill="#FFFFFF" opacity="1.000000" stroke="none" d="
M311.998932,47.000404 
	C317.980164,47.000404 323.461578,47.000404 329.470367,47.000404 
	C328.871765,50.980675 328.318298,54.660801 327.684540,58.874702 
	C322.635529,58.874702 317.573639,58.874702 312.121948,58.874702 
	C312.121948,77.465515 312.121948,95.519241 312.121948,113.784332 
	C306.635254,113.784332 301.548157,113.784332 296.050049,113.784332 
	C296.050049,95.703728 296.050049,77.656662 296.050049,59.164394 
	C290.597931,59.164394 285.525848,59.164394 280.205139,59.164394 
	C280.205139,54.991772 280.205139,51.258480 280.205139,47.000404 
	C290.640198,47.000404 301.069641,47.000404 311.998932,47.000404 
z" />
	<path fill="#F5F5F5" opacity="1.000000" stroke="none" d="
M257.133392,86.999947 
	C257.133392,73.548203 257.133392,60.596470 257.133392,47.313446 
	C262.587250,47.313446 267.820679,47.313446 273.369995,47.313446 
	C273.369995,69.255531 273.369995,91.296036 273.369995,113.679276 
	C268.158142,113.679276 262.942078,113.679276 257.133392,113.679276 
	C257.133392,105.001740 257.133392,96.250847 257.133392,86.999947 
z" />
</svg>